<svg width="35" height="35" viewBox="0 0 263 263" fill="none" xmlns="http://www.w3.org/2000/svg"><path d="M262.8 131.4C262.8 203.98 203.98 262.8 131.382 262.8C58.7839 262.8 0 203.986 0 131.4C0 58.8138 58.8199 0 131.364 0C203.908 0 262.8 58.8438 262.8 131.4Z" fill="#228BE6"></path><path d="M131.55 60.8292C124.523 60.7839 117.503 61.2712 110.55 62.2868C106.128 62.8867 102.63 64.0444 101.142 64.8062L101.706 65.0701C103.845 65.9324 106.07 66.5657 108.342 66.9596C114.186 68.0813 122.436 68.8131 131.544 68.8131C138.559 68.8586 145.567 68.3714 152.508 67.3555C156.93 66.7256 160.428 65.5559 161.916 64.8062L161.352 64.5422C159.225 63.6894 157.012 63.068 154.752 62.6887C148.914 61.561 140.664 60.8292 131.55 60.8292ZM131.55 73.6777C124.295 73.7249 117.047 73.2277 109.866 72.1901C103.866 71.1644 99.6301 70.1387 97.0921 67.8833C96.6489 67.4947 96.2911 67.0186 96.0412 66.4848C95.7913 65.9511 95.6547 65.3713 95.6401 64.7822C95.651 64.2001 95.7862 63.6272 96.0366 63.1016C96.287 62.5761 96.6469 62.1101 97.0921 61.735C97.8605 61.0309 98.7405 60.4593 99.6961 60.0435C102.187 59.0125 104.791 58.2796 107.454 57.8601C113.694 56.6604 122.208 55.9406 131.586 55.9406C138.831 55.8963 146.069 56.3935 153.24 57.4282C159.24 58.4539 163.44 59.4856 166.05 61.771C166.512 62.1366 166.886 62.6019 167.142 63.1322C167.399 63.6625 167.532 64.244 167.532 64.8331C167.532 65.4223 167.399 66.0038 167.142 66.5341C166.886 67.0644 166.512 67.5297 166.05 67.8953C165.278 68.5706 164.411 69.1284 163.476 69.5509C160.982 70.579 158.379 71.3235 155.718 71.7702C149.4 72.9519 140.928 73.6777 131.55 73.6777Z" fill="#FAB005"></path><path d="M186.744 129.114C184.344 126.199 180.108 119.115 179.646 118.155L180.21 118.024C180.21 118.024 193.746 117.292 191.334 112.625C191.334 112.625 188.694 106.963 178.734 106.963C178.293 106.953 177.852 106.975 177.414 107.029L177.378 106.993C176.886 106.993 176.292 107.191 176.028 110.592C167.808 95.2598 162.096 92.0807 162.096 92.0807C161.004 91.4508 160.248 91.0549 157.44 90.4911C154.632 89.9272 133.08 89.7653 131.298 89.7653H131.166C129.366 89.7653 107.862 89.9632 105.024 90.4911C102.186 91.0189 101.424 91.4508 100.368 92.0807C100.368 92.0807 94.6562 95.2598 86.4362 110.592C86.1422 107.179 85.5482 106.993 85.0502 106.993V107.029C84.5882 106.993 84.1562 106.963 83.7242 106.963C73.7882 106.963 71.1842 112.625 71.1842 112.625C68.7422 117.292 82.2722 118.024 82.2722 118.024L82.8722 118.155C80.7707 121.965 78.4112 125.627 75.8102 129.114C75.3842 129.642 72.8702 132.558 71.9462 134.747C71.1914 136.802 70.833 138.982 70.8902 141.171C70.9922 144.77 71.3882 160.408 71.3882 160.408V180.142C71.3882 181.306 72.1142 182.2 73.0382 182.2H88.5842C89.5082 182.2 90.2702 181.27 90.2702 180.142V177.695H172.284V180.142C172.284 181.306 173.046 182.2 173.934 182.2H189.486C190.41 182.2 191.136 181.27 191.136 180.142V160.408C191.136 160.408 191.532 144.746 191.628 141.171C191.735 138.979 191.375 136.79 190.572 134.747C189.648 132.528 187.14 129.642 186.744 129.114ZM92.1362 114.017C92.1362 114.017 98.0822 100.7 102.798 95.0079C102.798 95.0079 111.582 94.612 123.366 94.51L123 95.4397V97.4552C122.998 97.6381 123.032 97.8196 123.101 97.9892C123.169 98.1587 123.271 98.3128 123.4 98.4424C123.53 98.5721 123.683 98.6746 123.852 98.744C124.022 98.8135 124.203 98.8484 124.386 98.8468H138.054C138.24 98.8516 138.424 98.8191 138.597 98.7513C138.77 98.6834 138.927 98.5816 139.06 98.4518C139.192 98.322 139.298 98.1669 139.369 97.9957C139.441 97.8245 139.477 97.6407 139.476 97.4552V95.4397L139.11 94.51C150.894 94.612 159.678 95.0079 159.678 95.0079C164.4 100.7 170.34 114.017 170.34 114.017C171.198 116.164 169.38 116.164 169.38 116.164H93.0962C93.0962 116.164 91.2782 116.164 92.1362 114.017ZM77.7362 146.504C74.7362 145.736 74.4362 143.918 74.4362 143.918C74.1617 141.267 74.4772 138.588 75.3602 136.073C76.3502 133.451 78.9242 133.157 80.8022 133.223C83.0462 133.289 89.6522 137.494 89.6522 137.494C94.6982 140.109 95.4242 149.119 95.4242 149.119C89.4802 148.644 83.5749 147.771 77.7482 146.504H77.7362ZM161.448 149.647C152.334 150.409 139.248 150.475 131.244 150.475C123.24 150.475 110.148 150.409 101.07 149.647C101.07 149.647 98.4662 144.116 102.39 143.984C102.954 143.948 114.672 143.553 131.244 143.523C147.816 143.493 159.564 143.948 160.092 143.984C164.07 144.116 161.46 149.647 161.46 149.647H161.448ZM188.052 143.948C188.052 143.948 187.722 145.748 184.752 146.534C178.913 147.771 173.004 148.657 167.058 149.185C167.058 149.185 167.784 140.187 172.836 137.56C172.836 137.56 179.436 133.361 181.65 133.289C183.564 133.223 186.138 133.517 187.098 136.139C188.011 138.638 188.342 141.314 188.064 143.96L188.052 143.948Z" fill="white"></path></svg>